<?xml version="1.0" encoding="UTF-8" standalone="no"?>
<!DOCTYPE svg PUBLIC "-//W3C//DTD SVG 1.1//EN"
 "http://www.w3.org/Graphics/SVG/1.1/DTD/svg11.dtd">
<!-- Generated by graphviz version 5.0.0 (20220707.1540)
 -->
<!-- Title: dependencies Pages: 1 -->
<svg width="2128pt" height="312pt"
 viewBox="0.00 0.00 2128.00 311.80" xmlns="http://www.w3.org/2000/svg" xmlns:xlink="http://www.w3.org/1999/xlink">
<g id="graph0" class="graph" transform="scale(1 1) rotate(0) translate(4 307.8)">
<title>dependencies</title>
<polygon fill="white" stroke="transparent" points="-4,4 -4,-307.8 2124,-307.8 2124,4 -4,4"/>
<text text-anchor="middle" x="1060" y="-8.2" font-family="sans-serif" font-size="14.00">dependencies</text>
<g id="clust1" class="cluster">
<title>cluster_AppModule</title>
<polygon fill="none" stroke="black" stroke-dasharray="1,5" points="8,-32.8 8,-295.8 2112,-295.8 2112,-32.8 8,-32.8"/>
</g>
<g id="clust16" class="cluster">
<title>cluster_AppModule_bootstrap</title>
<polygon fill="none" stroke="black" points="790,-235.8 790,-287.8 914,-287.8 914,-235.8 790,-235.8"/>
</g>
<g id="clust14" class="cluster">
<title>cluster_AppModule_imports</title>
<polygon fill="none" stroke="black" points="1960,-105.8 1960,-157.8 2104,-157.8 2104,-105.8 1960,-105.8"/>
</g>
<g id="clust4" class="cluster">
<title>cluster_AppModule_AppComponent_providers</title>
<polygon fill="none" stroke="black" points="1390,-40.8 1390,-157.8 1952,-157.8 1952,-40.8 1390,-40.8"/>
</g>
<g id="clust2" class="cluster">
<title>cluster_AppModule_declarations</title>
<polygon fill="none" stroke="black" points="16,-105.8 16,-157.8 1382,-157.8 1382,-105.8 16,-105.8"/>
</g>
<!-- AboutComponent -->
<g id="node1" class="node">
<title>AboutComponent</title>
<polygon fill="#ffffb3" stroke="black" points="1374.33,-149.8 1257.67,-149.8 1257.67,-113.8 1374.33,-113.8 1374.33,-149.8"/>
<text text-anchor="middle" x="1316" y="-127.6" font-family="Times,serif" font-size="14.00">AboutComponent</text>
</g>
<!-- AppModule -->
<g id="node12" class="node">
<title>AppModule</title>
<polygon fill="#8dd3c7" stroke="black" points="893.66,-214.8 890.66,-218.8 869.66,-218.8 866.66,-214.8 810.34,-214.8 810.34,-178.8 893.66,-178.8 893.66,-214.8"/>
<text text-anchor="middle" x="852" y="-192.6" font-family="Times,serif" font-size="14.00">AppModule</text>
</g>
<!-- AboutComponent&#45;&gt;AppModule -->
<g id="edge1" class="edge">
<title>AboutComponent&#45;&gt;AppModule</title>
<path fill="none" stroke="black" d="M1316,-149.91C1316,-169.14 1316,-196.8 1316,-196.8 1316,-196.8 904,-196.8 904,-196.8"/>
<polygon fill="black" stroke="black" points="904,-193.3 894,-196.8 904,-200.3 904,-193.3"/>
</g>
<!-- AppComponent -->
<g id="node2" class="node">
<title>AppComponent</title>
<polygon fill="#ffffb3" stroke="black" points="1613.94,-149.8 1508.06,-149.8 1508.06,-113.8 1613.94,-113.8 1613.94,-149.8"/>
<text text-anchor="middle" x="1561" y="-127.6" font-family="Times,serif" font-size="14.00">AppComponent</text>
</g>
<!-- AppComponent&#45;&gt;AppModule -->
<g id="edge2" class="edge">
<title>AppComponent&#45;&gt;AppModule</title>
<path fill="none" stroke="black" d="M1561,-150.08C1561,-171.12 1561,-202.8 1561,-202.8 1561,-202.8 903.7,-202.8 903.7,-202.8"/>
<polygon fill="black" stroke="black" points="903.7,-199.3 893.7,-202.8 903.7,-206.3 903.7,-199.3"/>
</g>
<!-- ContactComponent -->
<g id="node3" class="node">
<title>ContactComponent</title>
<polygon fill="#ffffb3" stroke="black" points="1239.38,-149.8 1114.62,-149.8 1114.62,-113.8 1239.38,-113.8 1239.38,-149.8"/>
<text text-anchor="middle" x="1177" y="-127.6" font-family="Times,serif" font-size="14.00">ContactComponent</text>
</g>
<!-- ContactComponent&#45;&gt;AppModule -->
<g id="edge4" class="edge">
<title>ContactComponent&#45;&gt;AppModule</title>
<path fill="none" stroke="black" d="M1177,-149.82C1177,-167.17 1177,-190.8 1177,-190.8 1177,-190.8 903.82,-190.8 903.82,-190.8"/>
<polygon fill="black" stroke="black" points="903.82,-187.3 893.82,-190.8 903.82,-194.3 903.82,-187.3"/>
</g>
<!-- CreatejobComponent -->
<g id="node4" class="node">
<title>CreatejobComponent</title>
<polygon fill="#ffffb3" stroke="black" points="1096.75,-149.8 961.25,-149.8 961.25,-113.8 1096.75,-113.8 1096.75,-149.8"/>
<text text-anchor="middle" x="1029" y="-127.6" font-family="Times,serif" font-size="14.00">CreatejobComponent</text>
</g>
<!-- CreatejobComponent&#45;&gt;AppModule -->
<g id="edge5" class="edge">
<title>CreatejobComponent&#45;&gt;AppModule</title>
<path fill="none" stroke="black" d="M1029,-150.04C1029,-165.37 1029,-184.8 1029,-184.8 1029,-184.8 903.95,-184.8 903.95,-184.8"/>
<polygon fill="black" stroke="black" points="903.95,-181.3 893.95,-184.8 903.95,-188.3 903.95,-181.3"/>
</g>
<!-- FilterPipe -->
<g id="node5" class="node">
<title>FilterPipe</title>
<polygon fill="#ffffb3" stroke="black" points="943.72,-149.8 872.28,-149.8 872.28,-113.8 943.72,-113.8 943.72,-149.8"/>
<text text-anchor="middle" x="908" y="-127.6" font-family="Times,serif" font-size="14.00">FilterPipe</text>
</g>
<!-- FilterPipe&#45;&gt;AppModule -->
<g id="edge6" class="edge">
<title>FilterPipe&#45;&gt;AppModule</title>
<path fill="none" stroke="black" d="M883.11,-149.91C883.11,-149.91 883.11,-168.79 883.11,-168.79"/>
<polygon fill="black" stroke="black" points="879.61,-168.79 883.11,-178.79 886.61,-168.79 879.61,-168.79"/>
</g>
<!-- HomeComponent -->
<g id="node6" class="node">
<title>HomeComponent</title>
<polygon fill="#ffffb3" stroke="black" points="854.55,-149.8 739.45,-149.8 739.45,-113.8 854.55,-113.8 854.55,-149.8"/>
<text text-anchor="middle" x="797" y="-127.6" font-family="Times,serif" font-size="14.00">HomeComponent</text>
</g>
<!-- HomeComponent&#45;&gt;AppModule -->
<g id="edge7" class="edge">
<title>HomeComponent&#45;&gt;AppModule</title>
<path fill="none" stroke="black" d="M832.47,-149.91C832.47,-149.91 832.47,-168.79 832.47,-168.79"/>
<polygon fill="black" stroke="black" points="828.97,-168.79 832.47,-178.79 835.97,-168.79 828.97,-168.79"/>
</g>
<!-- JobsCarouselComponent -->
<g id="node7" class="node">
<title>JobsCarouselComponent</title>
<polygon fill="#ffffb3" stroke="black" points="720.99,-149.8 565.01,-149.8 565.01,-113.8 720.99,-113.8 720.99,-149.8"/>
<text text-anchor="middle" x="643" y="-127.6" font-family="Times,serif" font-size="14.00">JobsCarouselComponent</text>
</g>
<!-- JobsCarouselComponent&#45;&gt;AppModule -->
<g id="edge8" class="edge">
<title>JobsCarouselComponent&#45;&gt;AppModule</title>
<path fill="none" stroke="black" d="M643,-150.04C643,-165.37 643,-184.8 643,-184.8 643,-184.8 800.21,-184.8 800.21,-184.8"/>
<polygon fill="black" stroke="black" points="800.21,-188.3 810.21,-184.8 800.21,-181.3 800.21,-188.3"/>
</g>
<!-- JobsComponent -->
<g id="node8" class="node">
<title>JobsComponent</title>
<polygon fill="#ffffb3" stroke="black" points="547.23,-149.8 440.77,-149.8 440.77,-113.8 547.23,-113.8 547.23,-149.8"/>
<text text-anchor="middle" x="494" y="-127.6" font-family="Times,serif" font-size="14.00">JobsComponent</text>
</g>
<!-- JobsComponent&#45;&gt;AppModule -->
<g id="edge9" class="edge">
<title>JobsComponent&#45;&gt;AppModule</title>
<path fill="none" stroke="black" d="M494,-149.82C494,-167.17 494,-190.8 494,-190.8 494,-190.8 800.23,-190.8 800.23,-190.8"/>
<polygon fill="black" stroke="black" points="800.23,-194.3 810.23,-190.8 800.23,-187.3 800.23,-194.3"/>
</g>
<!-- LoginComponent -->
<g id="node9" class="node">
<title>LoginComponent</title>
<polygon fill="#ffffb3" stroke="black" points="422.27,-149.8 307.73,-149.8 307.73,-113.8 422.27,-113.8 422.27,-149.8"/>
<text text-anchor="middle" x="365" y="-127.6" font-family="Times,serif" font-size="14.00">LoginComponent</text>
</g>
<!-- LoginComponent&#45;&gt;AppModule -->
<g id="edge10" class="edge">
<title>LoginComponent&#45;&gt;AppModule</title>
<path fill="none" stroke="black" d="M365,-149.91C365,-169.14 365,-196.8 365,-196.8 365,-196.8 800.06,-196.8 800.06,-196.8"/>
<polygon fill="black" stroke="black" points="800.06,-200.3 810.06,-196.8 800.06,-193.3 800.06,-200.3"/>
</g>
<!-- ProfileComponent -->
<g id="node10" class="node">
<title>ProfileComponent</title>
<polygon fill="#ffffb3" stroke="black" points="289.94,-149.8 170.06,-149.8 170.06,-113.8 289.94,-113.8 289.94,-149.8"/>
<text text-anchor="middle" x="230" y="-127.6" font-family="Times,serif" font-size="14.00">ProfileComponent</text>
</g>
<!-- ProfileComponent&#45;&gt;AppModule -->
<g id="edge11" class="edge">
<title>ProfileComponent&#45;&gt;AppModule</title>
<path fill="none" stroke="black" d="M230,-150.08C230,-171.12 230,-202.8 230,-202.8 230,-202.8 800.22,-202.8 800.22,-202.8"/>
<polygon fill="black" stroke="black" points="800.22,-206.3 810.22,-202.8 800.22,-199.3 800.22,-206.3"/>
</g>
<!-- RegisterComponent -->
<g id="node11" class="node">
<title>RegisterComponent</title>
<polygon fill="#ffffb3" stroke="black" points="151.99,-149.8 24.01,-149.8 24.01,-113.8 151.99,-113.8 151.99,-149.8"/>
<text text-anchor="middle" x="88" y="-127.6" font-family="Times,serif" font-size="14.00">RegisterComponent</text>
</g>
<!-- RegisterComponent&#45;&gt;AppModule -->
<g id="edge12" class="edge">
<title>RegisterComponent&#45;&gt;AppModule</title>
<path fill="none" stroke="black" d="M88,-150.05C88,-172.82 88,-208.8 88,-208.8 88,-208.8 800.11,-208.8 800.11,-208.8"/>
<polygon fill="black" stroke="black" points="800.11,-212.3 810.11,-208.8 800.11,-205.3 800.11,-212.3"/>
</g>
<!-- AppComponent  -->
<g id="node15" class="node">
<title>AppComponent </title>
<polygon fill="#80b1d3" stroke="black" points="906.44,-279.8 797.56,-279.8 797.56,-243.8 906.44,-243.8 906.44,-279.8"/>
<text text-anchor="middle" x="852" y="-257.6" font-family="Times,serif" font-size="14.00">AppComponent </text>
</g>
<!-- AppModule&#45;&gt;AppComponent  -->
<g id="edge14" class="edge">
<title>AppModule&#45;&gt;AppComponent </title>
<path fill="none" stroke="black" stroke-dasharray="1,5" d="M852,-214.91C852,-214.91 852,-233.79 852,-233.79"/>
<polygon fill="black" stroke="black" points="848.5,-233.79 852,-243.79 855.5,-233.79 848.5,-233.79"/>
</g>
<!-- { provide: CarouselConfig, useValue: { interval: , noPause: true } } -->
<g id="node13" class="node">
<title>{ provide: CarouselConfig, useValue: { interval: , noPause: true } }</title>
<ellipse fill="#fdb462" stroke="black" cx="1671" cy="-66.8" rx="272.61" ry="18"/>
<text text-anchor="middle" x="1671" y="-62.6" font-family="Times,serif" font-size="14.00">{ provide: CarouselConfig, useValue: { interval: , noPause: true } }</text>
</g>
<!-- { provide: CarouselConfig, useValue: { interval: , noPause: true } }&#45;&gt;AppComponent -->
<g id="edge3" class="edge">
<title>{ provide: CarouselConfig, useValue: { interval: , noPause: true } }&#45;&gt;AppComponent</title>
<path fill="none" stroke="black" d="M1561,-83.54C1561,-83.54 1561,-103.52 1561,-103.52"/>
<polygon fill="black" stroke="black" points="1557.5,-103.52 1561,-113.52 1564.5,-103.52 1557.5,-103.52"/>
</g>
<!-- AppRoutingModule -->
<g id="node14" class="node">
<title>AppRoutingModule</title>
<polygon fill="#8dd3c7" stroke="black" points="2096.28,-149.8 2093.28,-153.8 2072.28,-153.8 2069.28,-149.8 1967.72,-149.8 1967.72,-113.8 2096.28,-113.8 2096.28,-149.8"/>
<text text-anchor="middle" x="2032" y="-127.6" font-family="Times,serif" font-size="14.00">AppRoutingModule</text>
</g>
<!-- AppRoutingModule&#45;&gt;AppModule -->
<g id="edge13" class="edge">
<title>AppRoutingModule&#45;&gt;AppModule</title>
<path fill="none" stroke="black" d="M2032,-150.05C2032,-172.82 2032,-208.8 2032,-208.8 2032,-208.8 904,-208.8 904,-208.8"/>
<polygon fill="black" stroke="black" points="904,-205.3 894,-208.8 904,-212.3 904,-205.3"/>
</g>
</g>
</svg>
